<svg xmlns="http://www.w3.org/2000/svg" xmlns:xlink="http://www.w3.org/1999/xlink" width="500" zoomAndPan="magnify" viewBox="0 0 375 374.999991" height="500" preserveAspectRatio="xMidYMid meet" version="1.0"><defs><clipPath id="a023478300"><path d="M 1 1 L 374 1 L 374 374 L 1 374 Z M 1 1 " clip-rule="nonzero"/></clipPath><clipPath id="d2806af70a"><path d="M 373.949219 187.5 C 373.949219 190.550781 373.875 193.601562 373.726562 196.648438 C 373.574219 199.695312 373.351562 202.738281 373.050781 205.773438 C 372.753906 208.8125 372.378906 211.839844 371.933594 214.859375 C 371.484375 217.875 370.960938 220.882812 370.367188 223.875 C 369.773438 226.867188 369.105469 229.84375 368.363281 232.804688 C 367.621094 235.761719 366.808594 238.703125 365.921875 241.625 C 365.035156 244.542969 364.078125 247.441406 363.050781 250.3125 C 362.023438 253.1875 360.925781 256.03125 359.757812 258.851562 C 358.589844 261.671875 357.351562 264.460938 356.046875 267.21875 C 354.746094 269.976562 353.371094 272.699219 351.933594 275.390625 C 350.496094 278.082031 348.992188 280.738281 347.421875 283.355469 C 345.855469 285.972656 344.222656 288.550781 342.527344 291.085938 C 340.832031 293.625 339.074219 296.117188 337.257812 298.566406 C 335.441406 301.019531 333.5625 303.425781 331.628906 305.78125 C 329.691406 308.140625 327.699219 310.453125 325.648438 312.710938 C 323.601562 314.972656 321.496094 317.183594 319.339844 319.339844 C 317.183594 321.496094 314.972656 323.601562 312.710938 325.648438 C 310.453125 327.699219 308.140625 329.691406 305.78125 331.628906 C 303.425781 333.5625 301.019531 335.441406 298.566406 337.257812 C 296.117188 339.074219 293.625 340.832031 291.085938 342.527344 C 288.550781 344.222656 285.972656 345.855469 283.355469 347.421875 C 280.738281 348.992188 278.082031 350.496094 275.390625 351.933594 C 272.699219 353.371094 269.976562 354.742188 267.21875 356.046875 C 264.460938 357.351562 261.671875 358.589844 258.851562 359.757812 C 256.03125 360.925781 253.1875 362.023438 250.3125 363.050781 C 247.441406 364.078125 244.542969 365.035156 241.625 365.921875 C 238.703125 366.808594 235.761719 367.621094 232.804688 368.363281 C 229.84375 369.105469 226.867188 369.773438 223.875 370.367188 C 220.882812 370.960938 217.875 371.484375 214.859375 371.933594 C 211.839844 372.378906 208.8125 372.753906 205.773438 373.050781 C 202.738281 373.351562 199.695312 373.574219 196.648438 373.726562 C 193.601562 373.875 190.550781 373.949219 187.5 373.949219 C 184.449219 373.949219 181.398438 373.875 178.351562 373.726562 C 175.304688 373.574219 172.261719 373.351562 169.226562 373.050781 C 166.1875 372.753906 163.160156 372.378906 160.140625 371.933594 C 157.125 371.484375 154.117188 370.960938 151.125 370.367188 C 148.132812 369.773438 145.15625 369.105469 142.195312 368.363281 C 139.238281 367.621094 136.296875 366.808594 133.375 365.921875 C 130.457031 365.035156 127.558594 364.078125 124.6875 363.050781 C 121.8125 362.023438 118.96875 360.925781 116.148438 359.757812 C 113.328125 358.589844 110.539062 357.351562 107.78125 356.046875 C 105.023438 354.746094 102.300781 353.371094 99.609375 351.933594 C 96.917969 350.496094 94.261719 348.992188 91.644531 347.421875 C 89.027344 345.855469 86.449219 344.222656 83.914062 342.527344 C 81.375 340.832031 78.882812 339.074219 76.433594 337.257812 C 73.980469 335.441406 71.574219 333.5625 69.21875 331.628906 C 66.859375 329.691406 64.546875 327.699219 62.289062 325.648438 C 60.027344 323.601562 57.816406 321.496094 55.660156 319.339844 C 53.503906 317.183594 51.398438 314.972656 49.351562 312.710938 C 47.300781 310.453125 45.308594 308.140625 43.371094 305.78125 C 41.4375 303.425781 39.558594 301.019531 37.742188 298.566406 C 35.925781 296.117188 34.167969 293.625 32.472656 291.085938 C 30.777344 288.550781 29.144531 285.972656 27.578125 283.355469 C 26.007812 280.738281 24.503906 278.082031 23.066406 275.390625 C 21.628906 272.699219 20.253906 269.976562 18.953125 267.21875 C 17.648438 264.460938 16.410156 261.671875 15.242188 258.851562 C 14.074219 256.03125 12.976562 253.1875 11.949219 250.3125 C 10.921875 247.441406 9.964844 244.542969 9.078125 241.625 C 8.191406 238.703125 7.378906 235.761719 6.636719 232.804688 C 5.894531 229.84375 5.226562 226.867188 4.632812 223.875 C 4.039062 220.882812 3.515625 217.875 3.066406 214.859375 C 2.621094 211.839844 2.246094 208.8125 1.949219 205.773438 C 1.648438 202.738281 1.425781 199.695312 1.273438 196.648438 C 1.125 193.601562 1.050781 190.550781 1.050781 187.5 C 1.050781 184.449219 1.125 181.398438 1.273438 178.351562 C 1.425781 175.304688 1.648438 172.261719 1.949219 169.226562 C 2.246094 166.1875 2.621094 163.160156 3.066406 160.140625 C 3.515625 157.125 4.039062 154.117188 4.632812 151.125 C 5.226562 148.132812 5.894531 145.15625 6.636719 142.195312 C 7.378906 139.238281 8.191406 136.296875 9.078125 133.375 C 9.964844 130.457031 10.921875 127.558594 11.949219 124.6875 C 12.976562 121.8125 14.074219 118.96875 15.242188 116.148438 C 16.410156 113.328125 17.648438 110.539062 18.953125 107.78125 C 20.253906 105.023438 21.628906 102.300781 23.066406 99.609375 C 24.503906 96.917969 26.007812 94.261719 27.578125 91.644531 C 29.144531 89.027344 30.777344 86.449219 32.472656 83.914062 C 34.167969 81.375 35.925781 78.882812 37.742188 76.433594 C 39.558594 73.980469 41.4375 71.574219 43.371094 69.21875 C 45.308594 66.859375 47.300781 64.546875 49.351562 62.289062 C 51.398438 60.027344 53.503906 57.816406 55.660156 55.660156 C 57.816406 53.503906 60.027344 51.398438 62.289062 49.351562 C 64.546875 47.300781 66.859375 45.308594 69.21875 43.371094 C 71.574219 41.4375 73.980469 39.558594 76.433594 37.742188 C 78.882812 35.925781 81.375 34.167969 83.914062 32.472656 C 86.449219 30.777344 89.027344 29.144531 91.644531 27.578125 C 94.261719 26.007812 96.917969 24.503906 99.609375 23.066406 C 102.300781 21.628906 105.023438 20.253906 107.78125 18.953125 C 110.539062 17.648438 113.328125 16.410156 116.148438 15.242188 C 118.96875 14.074219 121.8125 12.976562 124.6875 11.949219 C 127.558594 10.921875 130.457031 9.964844 133.375 9.078125 C 136.296875 8.191406 139.238281 7.378906 142.195312 6.636719 C 145.15625 5.894531 148.132812 5.226562 151.125 4.632812 C 154.117188 4.039062 157.125 3.515625 160.140625 3.066406 C 163.160156 2.621094 166.1875 2.246094 169.226562 1.949219 C 172.261719 1.648438 175.304688 1.425781 178.351562 1.273438 C 181.398438 1.125 184.449219 1.050781 187.5 1.050781 C 190.550781 1.050781 193.601562 1.125 196.648438 1.273438 C 199.695312 1.425781 202.738281 1.648438 205.773438 1.949219 C 208.8125 2.246094 211.839844 2.621094 214.859375 3.066406 C 217.875 3.515625 220.882812 4.039062 223.875 4.632812 C 226.867188 5.226562 229.84375 5.894531 232.804688 6.636719 C 235.761719 7.378906 238.703125 8.191406 241.625 9.078125 C 244.542969 9.964844 247.441406 10.921875 250.3125 11.949219 C 253.1875 12.976562 256.03125 14.074219 258.851562 15.242188 C 261.671875 16.410156 264.460938 17.648438 267.21875 18.953125 C 269.976562 20.253906 272.699219 21.628906 275.390625 23.066406 C 278.082031 24.503906 280.738281 26.007812 283.355469 27.578125 C 285.972656 29.144531 288.550781 30.777344 291.085938 32.472656 C 293.625 34.167969 296.117188 35.925781 298.566406 37.742188 C 301.019531 39.558594 303.425781 41.4375 305.78125 43.371094 C 308.140625 45.308594 310.453125 47.300781 312.710938 49.351562 C 314.972656 51.398438 317.183594 53.503906 319.339844 55.660156 C 321.496094 57.816406 323.601562 60.027344 325.648438 62.289062 C 327.699219 64.546875 329.691406 66.859375 331.628906 69.21875 C 333.5625 71.574219 335.441406 73.980469 337.257812 76.433594 C 339.074219 78.882812 340.832031 81.375 342.527344 83.914062 C 344.222656 86.449219 345.855469 89.027344 347.421875 91.644531 C 348.992188 94.261719 350.496094 96.917969 351.933594 99.609375 C 353.371094 102.300781 354.742188 105.023438 356.046875 107.78125 C 357.351562 110.539062 358.589844 113.328125 359.757812 116.148438 C 360.925781 118.96875 362.023438 121.8125 363.050781 124.6875 C 364.078125 127.558594 365.035156 130.457031 365.921875 133.375 C 366.808594 136.296875 367.621094 139.238281 368.363281 142.195312 C 369.105469 145.15625 369.773438 148.132812 370.367188 151.125 C 370.960938 154.117188 371.484375 157.125 371.933594 160.140625 C 372.378906 163.160156 372.753906 166.1875 373.050781 169.226562 C 373.351562 172.261719 373.574219 175.304688 373.726562 178.351562 C 373.875 181.398438 373.949219 184.449219 373.949219 187.5 Z M 373.949219 187.5 " clip-rule="nonzero"/></clipPath></defs><g clip-path="url(#a023478300)"><g clip-path="url(#d2806af70a)"><path fill="#6e07f3" d="M 1.050781 1.050781 L 1.050781 373.949219 L 373.949219 373.949219 L 373.949219 1.050781 Z M 1.050781 1.050781 " fill-opacity="1" fill-rule="nonzero"/></g></g><path fill="#ffffff" d="M 187.5 375 C 84.074219 375 0 290.925781 0 187.5 C 0 84.074219 84.074219 0 187.5 0 C 290.851562 0 375 84.074219 375 187.5 C 375 290.925781 290.851562 375 187.5 375 Z M 187.5 2.101562 C 85.273438 2.101562 2.101562 85.273438 2.101562 187.5 C 2.101562 289.726562 85.273438 372.898438 187.5 372.898438 C 289.726562 372.898438 372.898438 289.726562 372.898438 187.5 C 372.898438 85.273438 289.726562 2.101562 187.5 2.101562 Z M 187.5 2.101562 " fill-opacity="1" fill-rule="nonzero"/><path fill="#ffffff" d="M 53.6875 106.273438 C 36.546875 109.128906 23.878906 122.972656 21.679688 141.136719 L 21.167969 145.019531 L 46.65625 145.019531 L 47.167969 141.941406 C 47.828125 137.988281 52.589844 133.082031 56.984375 131.910156 C 58.667969 131.394531 63.136719 131.175781 66.796875 131.25 L 73.609375 131.46875 L 73.828125 190.210938 L 73.972656 249.023438 L 99.609375 249.023438 L 99.609375 131.101562 L 119.164062 131.101562 L 134.546875 151.023438 C 143.042969 162.011719 154.980469 177.464844 161.058594 185.300781 L 172.117188 199.511719 L 172.117188 281.980469 L 203.613281 281.980469 L 203.613281 198.777344 L 214.304688 184.863281 C 220.164062 177.246094 225.292969 170.726562 225.660156 170.359375 C 226.023438 169.921875 228.003906 171.3125 230.566406 173.730469 C 234.960938 177.90625 237.964844 179.734375 244.261719 182.078125 C 247.558594 183.324219 251.21875 183.472656 280.515625 183.835938 C 316.773438 184.277344 315.601562 184.058594 321.53125 189.476562 C 332.152344 199 329.371094 216.285156 316.40625 221.851562 C 312.742188 223.386719 312.011719 223.460938 284.691406 223.242188 L 256.714844 223.023438 L 253.199219 220.972656 C 248.804688 218.40625 245.582031 214.011719 244.117188 208.59375 L 242.945312 204.34375 L 218.261719 204.34375 L 218.261719 207.566406 C 218.261719 209.324219 218.992188 213.425781 219.945312 216.648438 C 223.972656 230.492188 234.519531 241.625 248.289062 246.679688 L 253.785156 248.65625 L 283.667969 248.875 C 311.792969 249.097656 313.914062 249.023438 319.480469 247.632812 C 334.789062 243.75 347.386719 231.371094 351.929688 215.699219 C 353.6875 209.765625 353.6875 198.121094 352 192.332031 C 348.265625 179.589844 339.402344 168.894531 328.125 163.476562 C 324.683594 161.863281 320.140625 160.179688 318.015625 159.742188 C 315.601562 159.226562 303.148438 158.933594 285.058594 158.933594 C 267.332031 158.933594 254.957031 158.640625 253.269531 158.203125 C 248.070312 156.738281 243.238281 150.730469 243.164062 145.75 C 243.164062 142.457031 244.703125 138.425781 246.898438 135.863281 C 250.925781 131.324219 252.832031 131.101562 285.9375 131.101562 C 305.199219 131.101562 316.332031 131.394531 318.238281 131.910156 C 322.484375 133.082031 327.171875 138.0625 327.832031 141.941406 L 328.34375 145.019531 L 353.832031 145.019531 L 353.320312 141.136719 C 352.585938 135.058594 351.636719 131.835938 348.851562 126.5625 C 344.019531 117.332031 336.402344 110.816406 326.660156 107.519531 C 321.972656 105.90625 321.019531 105.835938 279.050781 105.6875 L 236.207031 105.46875 L 231.8125 111.253906 C 211.449219 137.988281 187.792969 168.238281 187.425781 168.015625 C 187.207031 167.871094 176.148438 153.734375 162.964844 136.597656 L 138.941406 105.46875 L 98.21875 105.542969 C 75.804688 105.613281 55.8125 105.90625 53.6875 106.273438 Z M 53.6875 106.273438 " fill-opacity="1" fill-rule="nonzero"/></svg>