<?xml version="1.0" standalone="no"?>
<!DOCTYPE svg PUBLIC "-//W3C//DTD SVG 20010904//EN"
 "http://www.w3.org/TR/2001/REC-SVG-20010904/DTD/svg10.dtd">
<svg version="1.0" xmlns="http://www.w3.org/2000/svg"
 width="512.000000pt" height="512.000000pt" viewBox="0 0 512.000000 512.000000"
 preserveAspectRatio="xMidYMid meet">

<g transform="translate(0.000000,512.000000) scale(0.100000,-0.100000)"
fill="#000000" stroke="none">
<path d="M733 3669 c-234 -39 -407 -228 -437 -476 l-7 -53 174 0 174 0 7 42
c9 54 74 121 134 137 23 7 84 10 134 9 l93 -3 3 -802 2 -803 175 0 175 0 0
805 0 805 133 0 134 0 210 -272 c116 -150 279 -361 362 -468 l151 -194 0 -563
0 -563 215 0 215 0 0 568 0 568 146 190 c80 104 150 193 155 198 5 6 32 -13
67 -46 60 -57 101 -82 187 -114 45 -17 95 -19 495 -24 495 -6 479 -3 560 -77
145 -130 107 -366 -70 -442 -50 -21 -60 -22 -433 -19 l-382 3 -48 28 c-60 35
-104 95 -124 169 l-16 58 -169 0 -168 0 0 -44 c0 -24 10 -80 23 -124 55 -189
199 -341 387 -410 l75 -27 408 -3 c384 -3 413 -2 489 17 209 53 381 222 443
436 24 81 24 240 1 319 -51 174 -172 320 -326 394 -47 22 -109 45 -138 51 -33
7 -203 11 -450 11 -242 0 -411 4 -434 10 -71 20 -137 102 -138 170 0 45 21
100 51 135 55 62 81 65 533 65 263 0 415 -4 441 -11 58 -16 122 -84 131 -137
l7 -42 174 0 174 0 -7 53 c-10 83 -23 127 -61 199 -66 126 -170 215 -303 260
-64 22 -77 23 -650 25 l-585 3 -60 -79 c-278 -365 -601 -778 -606 -775 -3 2
-154 195 -334 429 l-328 425 -556 -1 c-306 -1 -579 -5 -608 -10z"/>
</g>
</svg>
