<svg xmlns="http://www.w3.org/2000/svg" xmlns:xlink="http://www.w3.org/1999/xlink" width="500" zoomAndPan="magnify" viewBox="0 0 375 374.999991" height="500" preserveAspectRatio="xMidYMid meet" version="1.0"><path fill="#ffffff" d="M 53.6875 106.273438 C 36.546875 109.128906 23.878906 122.972656 21.679688 141.136719 L 21.167969 145.019531 L 46.65625 145.019531 L 47.167969 141.941406 C 47.828125 137.988281 52.589844 133.082031 56.984375 131.910156 C 58.667969 131.394531 63.136719 131.175781 66.796875 131.25 L 73.609375 131.46875 L 73.828125 190.210938 L 73.972656 249.023438 L 99.609375 249.023438 L 99.609375 131.101562 L 119.164062 131.101562 L 134.546875 151.023438 C 143.042969 162.011719 154.980469 177.464844 161.058594 185.300781 L 172.117188 199.511719 L 172.117188 281.980469 L 203.613281 281.980469 L 203.613281 198.777344 L 214.304688 184.863281 C 220.164062 177.246094 225.292969 170.726562 225.660156 170.359375 C 226.023438 169.921875 228.003906 171.3125 230.566406 173.730469 C 234.960938 177.90625 237.964844 179.734375 244.261719 182.078125 C 247.558594 183.324219 251.21875 183.472656 280.515625 183.835938 C 316.773438 184.277344 315.601562 184.058594 321.53125 189.476562 C 332.152344 199 329.371094 216.285156 316.40625 221.851562 C 312.742188 223.386719 312.011719 223.460938 284.691406 223.242188 L 256.714844 223.023438 L 253.199219 220.972656 C 248.804688 218.40625 245.582031 214.011719 244.117188 208.59375 L 242.945312 204.34375 L 218.261719 204.34375 L 218.261719 207.566406 C 218.261719 209.324219 218.992188 213.425781 219.945312 216.648438 C 223.972656 230.492188 234.519531 241.625 248.289062 246.679688 L 253.785156 248.65625 L 283.667969 248.875 C 311.792969 249.097656 313.914062 249.023438 319.480469 247.632812 C 334.789062 243.75 347.386719 231.371094 351.929688 215.699219 C 353.6875 209.765625 353.6875 198.121094 352 192.332031 C 348.265625 179.589844 339.402344 168.894531 328.125 163.476562 C 324.683594 161.863281 320.140625 160.179688 318.015625 159.742188 C 315.601562 159.226562 303.148438 158.933594 285.058594 158.933594 C 267.332031 158.933594 254.957031 158.640625 253.269531 158.203125 C 248.070312 156.738281 243.238281 150.730469 243.164062 145.75 C 243.164062 142.457031 244.703125 138.425781 246.898438 135.863281 C 250.925781 131.324219 252.832031 131.101562 285.9375 131.101562 C 305.199219 131.101562 316.332031 131.394531 318.238281 131.910156 C 322.484375 133.082031 327.171875 138.0625 327.832031 141.941406 L 328.34375 145.019531 L 353.832031 145.019531 L 353.320312 141.136719 C 352.585938 135.058594 351.636719 131.835938 348.851562 126.5625 C 344.019531 117.332031 336.402344 110.816406 326.660156 107.519531 C 321.972656 105.90625 321.019531 105.835938 279.050781 105.6875 L 236.207031 105.46875 L 231.8125 111.253906 C 211.449219 137.988281 187.792969 168.238281 187.425781 168.015625 C 187.207031 167.871094 176.148438 153.734375 162.964844 136.597656 L 138.941406 105.46875 L 98.21875 105.542969 C 75.804688 105.613281 55.8125 105.90625 53.6875 106.273438 Z M 53.6875 106.273438 " fill-opacity="1" fill-rule="nonzero"/></svg>